<svg width="595" height="165" viewBox="0 0 595 165" fill="none" xmlns="http://www.w3.org/2000/svg">
<path fill-rule="evenodd" clip-rule="evenodd" d="M0 0H595V165H0V0ZM407.293 111.639H406.846C402.238 111.639 398.493 115.491 398.493 120.255C398.493 125.02 402.238 128.872 406.846 128.872H407.293C411.9 128.872 415.645 125.02 415.645 120.255C415.645 115.491 411.9 111.639 407.293 111.639ZM419.812 49.425V96.5248C419.812 105.424 423.009 112.998 429.384 119.172C435.754 125.34 443.562 128.431 452.735 128.431C461.857 128.431 469.525 125.372 475.928 119.172C482.385 112.919 485.657 105.309 485.657 96.5248V49.425H471.591V96.5248C471.591 101.524 469.716 105.93 466.1 109.432C462.479 112.939 457.915 114.759 452.735 114.759C447.554 114.759 442.99 112.939 439.369 109.432C435.753 105.93 433.878 101.524 433.878 96.5248V49.425H419.812ZM100.28 114.63H50.5265V110.307L102.155 74.4737V49.2233L36.5901 49.1886L36.583 62.8108L88.6687 62.8386L88.7559 67.3407L36.5807 103.204L36.774 128.252H100.28V114.63ZM390.686 114.749H340.932V110.425L392.561 74.592V49.3416L326.995 49.3069L326.988 62.9291L379.074 62.9569L379.161 67.459L326.986 103.323L327.179 128.371H390.686V114.749ZM131.906 128.194C135.638 128.194 139.085 127.297 142.39 125.468L161.195 114.914V128.335H174.774V49.1886H114.517V62.86H160.805V67.8692L160.8 67.8716L121.252 89.907C114.701 93.4479 110.594 100.327 110.594 107.684C110.594 113.531 112.731 118.422 117.01 122.413C121.443 126.247 126.461 128.194 131.906 128.194ZM135.355 114.25C134.122 114.933 132.905 115.247 131.417 115.247C127.337 115.247 123.693 111.823 123.693 107.77C123.693 104.989 125.044 102.794 127.633 101.29L161.107 82.6556V99.7809L160.778 99.9659L135.355 114.25ZM275.655 128.194C279.387 128.194 282.833 127.297 286.139 125.468L304.944 114.914V128.335H318.522V49.1886H258.266V62.86H304.553V67.8692L304.549 67.8716L265.001 89.907C258.449 93.4479 254.343 100.327 254.343 107.684C254.343 113.531 256.479 118.422 260.759 122.413C265.192 126.247 270.209 128.194 275.655 128.194ZM279.104 114.25C277.871 114.933 276.654 115.247 275.165 115.247C271.086 115.247 267.442 111.823 267.442 107.77C267.442 104.989 268.793 102.794 271.382 101.29L304.856 82.6556V99.7809L304.526 99.9659L279.104 114.25ZM515.413 128.194C519.145 128.194 522.592 127.297 525.897 125.468L544.702 114.914V128.335H558.281V49.1886H498.024V62.86H544.311V67.8692L544.307 67.8716L504.759 89.907C498.208 93.4479 494.101 100.327 494.101 107.684C494.101 113.531 496.238 118.422 500.517 122.413C504.95 126.247 509.968 128.194 515.413 128.194ZM518.862 114.25C517.629 114.933 516.412 115.247 514.923 115.247C510.844 115.247 507.2 111.823 507.2 107.77C507.2 104.989 508.551 102.794 511.14 101.29L544.614 82.6556V99.7809L544.285 99.9659L518.862 114.25ZM223.417 79.2402L249.932 49.3148H232.879L199.653 87.0168V23.3115H185.994V128.234H199.653V105.645L213.574 89.7518L234.84 128.234H249.932L223.417 79.2402Z" fill="#1EB763"/>
</svg>
